HIERARCHY
ROOT Hips
{
	OFFSET 0.000000 8.830580 0.000000
	CHANNELS 6 Xposition Yposition Zposition Zrotation Yrotation Xrotation 
	JOINT Spine
	{
		OFFSET 0.000000 0.010000 0.000000
		CHANNELS 3 Zrotation Yrotation Xrotation
		JOINT Spine1
		{
			OFFSET 0.000000 2.459130 0.000000
			CHANNELS 3 Zrotation Yrotation Xrotation
			JOINT Neck
			{
				OFFSET 0.000000 2.484630 0.000000
				CHANNELS 3 Zrotation Yrotation Xrotation
				JOINT Head_virtual
				{
					OFFSET 0.000000 0.000000 0.000000
					CHANNELS 3 Zrotation Yrotation Xrotation
					JOINT Head
					{
						OFFSET 0.000000 0.927525 0.000000
						CHANNELS 3 Zrotation Yrotation Xrotation
						End Site
						{
							OFFSET 0.000000 0.000000 0.000000
						}
					}
				}
				JOINT LeftUpArm_virtual
				{
					OFFSET 0.000000 0.000000 0.000000
					CHANNELS 3 Zrotation Yrotation Xrotation
					JOINT LeftUpArm
					{
						OFFSET 1.248820 0.000000 0.000000
						CHANNELS 3 Zrotation Yrotation Xrotation
						JOINT LeftForeArm
						{
							OFFSET 2.597580 0.000000 0.000000
							CHANNELS 3 Zrotation Yrotation Xrotation
							JOINT LeftHand
							{
								OFFSET 2.455420 0.000000 0.000000
								CHANNELS 3 Zrotation Yrotation Xrotation
								End Site
								{
									OFFSET 0.000000 0.000000 0.000000
								}
							}
						}
					}
				}
				JOINT RightUpArm_virtual
				{
					OFFSET -0.000000 -0.000000 -0.000000
					CHANNELS 3 Zrotation Yrotation Xrotation
					JOINT RightUpArm
					{
						OFFSET -1.248820 -0.000000 -0.000000
						CHANNELS 3 Zrotation Yrotation Xrotation
						JOINT RightForeArm
						{
							OFFSET -2.597580 -0.000000 -0.000000
							CHANNELS 3 Zrotation Yrotation Xrotation
							JOINT RightHand
							{
								OFFSET -2.455420 -0.000000 -0.000000
								CHANNELS 3 Zrotation Yrotation Xrotation
								End Site
								{
									OFFSET 0.000000 0.000000 0.000000
								}
							}
						}
					}
				}
			}
		}
	}
	JOINT LeftUpLeg
	{
		OFFSET 1.271939 0.000000 0.000000
		CHANNELS 3 Zrotation Yrotation Xrotation
		JOINT LeftLowLeg
		{
			OFFSET 0.000000 -4.342910 0.000000
			CHANNELS 3 Zrotation Yrotation Xrotation
			JOINT LeftFoot
			{
				OFFSET 0.000000 -4.487670 0.000000
				CHANNELS 3 Zrotation Yrotation Xrotation
				JOINT LeftToeBase
				{
					OFFSET 0.000000 0.000000 1.515070
					CHANNELS 3 Zrotation Yrotation Xrotation
					End Site
					{
						OFFSET 0.000000 0.000000 0.000000
					}
				}
			}
		}
	}
	JOINT RightUpLeg
	{
		OFFSET -1.271939 0.000000 0.000000
		CHANNELS 3 Zrotation Yrotation Xrotation
		JOINT RightLowLeg
		{
			OFFSET 0.000000 -4.342910 0.000000
			CHANNELS 3 Zrotation Yrotation Xrotation
			JOINT RightFoot
			{
				OFFSET 0.000000 -4.487670 0.000000
				CHANNELS 3 Zrotation Yrotation Xrotation
				JOINT RightToeBase
				{
					OFFSET 0.000000 0.000000 1.515070
					CHANNELS 3 Zrotation Yrotation Xrotation
					End Site
					{
						OFFSET 0.000000 0.000000 0.000000
					}
				}
			}
		}
	}
}
MOTION
Frames: 8
Frame Time: 0.041667
-17.570805 9.013806 33.727314 -177.585838 -7.723001 -165.016257 4.311280 -0.479219 -25.349649 -3.366973 0.404687 8.595076 0.000000 0.000000 0.000000 9.164851 5.807166 -6.157199 -9.422201 -4.578930 -76.844197 -31.074699 -5.017080 13.814800 -36.256901 -23.524000 16.904999 0.000000 -29.928600 0.000000 11.589100 6.742800 26.135986 31.966101 -1.524740 3.673690 41.929100 13.663100 30.674299 0.000000 32.063000 0.000000 -5.309170 -0.363143 8.815340 4.444628 -17.901031 -12.690771 0.000000 0.000000 4.916890 -4.749083 9.772071 -1.931738 0.000000 0.000000 -10.314330 4.112860 22.907990 -10.372056 0.000000 0.000000 3.553340 2.077192 -29.991216 2.984743 0.000000 0.000000 -17.568930 
-17.573404 9.012784 33.727697 -177.527932 -7.611692 -164.894441 4.400380 -0.312179 -25.399703 -3.472531 0.466755 8.704321 0.000000 0.000000 0.000000 9.384329 5.770056 -6.309381 -9.434677 -4.469073 -76.874837 -31.220600 -4.942070 13.819300 -36.096500 -22.410299 19.153992 0.000000 -28.170601 0.000000 10.797400 6.892590 26.442993 32.196098 -1.579590 3.726890 41.919601 12.809500 30.718000 0.000000 29.757999 0.000000 -4.510830 -0.449992 9.353590 4.480192 -17.749154 -12.779552 0.000000 0.000000 4.886190 -4.754741 9.752607 -1.993622 0.000000 0.000000 -10.278610 4.056866 23.055389 -10.572613 0.000000 0.000000 3.647930 2.184262 -29.977796 2.918861 0.000000 0.000000 -17.578830 
-17.575075 9.010801 33.726434 -177.539423 -7.528752 -164.797961 4.387326 -0.264976 -25.369490 -3.461378 0.515544 8.703645 0.000000 0.000000 0.000000 9.523393 5.736828 -6.421402 -9.438881 -4.397571 -76.856150 -31.407499 -4.778350 13.795100 -35.879501 -21.125099 22.018005 0.000000 -26.486200 0.000000 10.085100 7.560060 26.601013 32.299000 -1.647910 3.702410 42.052399 11.815800 30.624001 0.000000 27.259501 0.000000 -3.725110 -0.797847 10.639900 4.455487 -17.650924 -12.825038 0.000000 0.000000 4.842010 -4.756019 9.732932 -2.032161 0.000000 0.000000 -10.276800 3.976334 23.133608 -10.694346 0.000000 0.000000 3.697530 2.284404 -29.948574 2.786278 0.000000 0.000000 -17.557850 
-17.580295 9.009158 33.713011 -177.596977 -7.962162 -164.655655 4.460765 -0.477955 -25.769462 -3.572601 0.335591 9.109397 0.000000 0.000000 0.000000 9.638925 5.675318 -6.647107 -9.393945 -4.314027 -76.703951 -31.379000 -4.625840 13.666500 -36.090199 -19.887400 24.794006 0.000000 -24.321800 0.000000 9.386930 7.888130 27.247009 32.294102 -1.677390 3.567890 42.391300 10.764800 30.184099 0.000000 24.576900 0.000000 -2.682780 -1.407560 11.890200 4.544156 -18.121218 -12.952782 0.000000 0.000000 4.794460 -4.698345 9.812305 -2.027066 0.000000 0.000000 -10.280620 4.032236 22.627848 -10.557008 0.000000 0.000000 3.422370 2.153646 -29.931283 2.786371 0.000000 0.000000 -17.534710 
-17.582513 9.007611 33.714240 -177.569164 -7.999131 -164.442439 4.521211 -0.433404 -25.739791 -3.612707 0.294403 8.934249 0.000000 0.000000 0.000000 9.746391 5.659005 -6.631519 -9.334047 -4.299792 -76.759924 -31.424200 -4.496500 13.604400 -36.350399 -18.485201 27.644989 0.000000 -21.922001 0.000000 8.953370 7.653940 28.605011 32.419601 -1.831250 3.598560 42.495399 9.695510 29.573500 0.000000 21.986099 0.000000 -2.057770 -2.036070 12.584000 4.653067 -18.172586 -13.209600 0.000000 0.000000 4.823100 -4.740867 9.815505 -2.096198 0.000000 0.000000 -10.258980 3.975306 22.538581 -10.787124 0.000000 0.000000 3.418990 2.200749 -29.847769 2.741480 0.000000 0.000000 -17.551680 
-17.583171 9.006866 33.705629 -177.577407 -7.847388 -164.476199 4.476585 -0.416396 -25.698928 -3.532303 0.364072 9.054414 0.000000 0.000000 0.000000 9.665841 5.734820 -6.671113 -9.124798 -4.295345 -76.821346 -31.463100 -4.314640 13.595600 -36.717999 -17.055401 29.549988 0.000000 -19.815800 0.000000 7.858660 8.359950 30.121002 32.425800 -1.929580 3.469270 42.664600 8.481490 28.854700 0.000000 19.464399 0.000000 -1.505400 -2.820030 14.078600 4.555116 -17.979520 -12.988435 0.000000 0.000000 4.651650 -4.719020 9.769917 -2.077645 0.000000 0.000000 -10.276620 3.978436 22.626541 -10.673152 0.000000 0.000000 3.369650 2.148469 -29.830068 2.742032 0.000000 0.000000 -17.526230 
-17.589733 9.005853 33.689121 -177.608846 -8.295920 -164.461892 4.557979 -0.647220 -25.893975 -3.583698 0.136863 9.296007 0.000000 0.000000 0.000000 9.642109 5.753711 -6.766320 -8.985466 -4.260267 -76.720439 -31.385900 -4.034800 13.518500 -37.298698 -15.570200 31.174011 0.000000 -17.747299 0.000000 6.907510 9.139370 31.877014 32.338600 -2.135450 3.426280 42.893902 7.339200 27.719500 0.000000 17.009701 0.000000 -1.021660 -3.512470 15.653100 4.619581 -18.440179 -12.948609 0.000000 0.000000 4.570980 -4.649048 9.816815 -2.069921 0.000000 0.000000 -10.251080 4.147604 21.952300 -10.338523 0.000000 0.000000 3.025880 1.947381 -29.688091 2.835443 0.000000 0.000000 -17.518520 
-17.591992 9.005066 33.687514 -177.571250 -8.156724 -164.238793 4.619514 -0.539380 -25.879432 -3.620744 0.146457 9.121960 0.000000 0.000000 0.000000 10.064498 5.542707 -6.791643 -9.216082 -4.218493 -76.704705 -31.312901 -3.779580 13.443500 -37.877602 -13.904000 32.156006 0.000000 -15.841100 0.000000 6.141510 9.906480 33.457001 32.362099 -2.339040 3.223500 42.896099 5.958690 26.707100 0.000000 14.944100 0.000000 -0.754363 -4.336320 16.767500 4.686658 -18.360576 -13.119157 0.000000 0.000000 4.517810 -4.701512 9.862772 -2.122381 0.000000 0.000000 -10.221440 3.995563 22.371890 -10.665587 0.000000 0.000000 3.165680 2.074950 -29.916746 2.716374 0.000000 0.000000 -17.489300 
